<svg width="566" height="307" viewBox="0 0 566 307" fill="none" xmlns="http://www.w3.org/2000/svg">
    <path d="M564 90.6225V208.474C564 251.463 523.016 282.611 481.597 271.101L290.388 217.967C228.729 200.833 226.334 114.288 286.952 93.7712L478.161 29.0536C520.305 14.7893 564 46.1301 564 90.6225Z" fill="url(#paint0_linear_1_16)" stroke="#00CACF" stroke-width="3"/>
    <g filter="url(#filter0_d_1_16)">
        <path d="M6 216.377V98.5256C6 55.537 46.9839 24.3889 88.4031 35.8987L279.612 89.033C341.271 106.167 343.666 192.712 283.048 213.229L91.839 277.946C49.6951 292.211 6 260.87 6 216.377Z" fill="url(#paint1_linear_1_16)"/>
        <path d="M6 216.377V98.5256C6 55.537 46.9839 24.3889 88.4031 35.8987L279.612 89.033C341.271 106.167 343.666 192.712 283.048 213.229L91.839 277.946C49.6951 292.211 6 260.87 6 216.377Z" stroke="#FE2830" stroke-width="3"/>
    </g>
    <g filter="url(#filter1_d_1_16)">
        <path d="M83.9446 203V124.455H137.561V139.872H102.929V155.98H134.148V171.436H102.929V203H83.9446ZM174.745 124.455V203H155.76V124.455H174.745ZM195.303 203V124.455H214.287V187.582H246.963V203H195.303ZM265.431 124.455H288.941L308.884 173.085H309.805L329.748 124.455H353.258V203H334.772V154.753H334.12L315.251 202.501H303.438L284.569 154.484H283.917V203H265.431V124.455ZM392.723 124.455V203H373.739V124.455H392.723ZM432.496 124.455L446.84 149.268H447.453L461.95 124.455H483.198L459.496 163.727L483.965 203H462.18L447.453 177.918H446.84L432.112 203H410.482L434.835 163.727L411.095 124.455H432.496Z" fill="white"/>
    </g>
    <defs>
        <filter id="filter0_d_1_16" x="0.5" y="31.9869" width="332.21" height="258.943" filterUnits="userSpaceOnUse" color-interpolation-filters="sRGB">
            <feFlood flood-opacity="0" result="BackgroundImageFix"/>
            <feColorMatrix in="SourceAlpha" type="matrix" values="0 0 0 0 0 0 0 0 0 0 0 0 0 0 0 0 0 0 127 0" result="hardAlpha"/>
            <feOffset dy="4"/>
            <feGaussianBlur stdDeviation="2"/>
            <feComposite in2="hardAlpha" operator="out"/>
            <feColorMatrix type="matrix" values="0 0 0 0 0 0 0 0 0 0 0 0 0 0 0 0 0 0 0.25 0"/>
            <feBlend mode="normal" in2="BackgroundImageFix" result="effect1_dropShadow_1_16"/>
            <feBlend mode="normal" in="SourceGraphic" in2="effect1_dropShadow_1_16" result="shape"/>
        </filter>
        <filter id="filter1_d_1_16" x="79.9446" y="124.455" width="408.02" height="86.5455" filterUnits="userSpaceOnUse" color-interpolation-filters="sRGB">
            <feFlood flood-opacity="0" result="BackgroundImageFix"/>
            <feColorMatrix in="SourceAlpha" type="matrix" values="0 0 0 0 0 0 0 0 0 0 0 0 0 0 0 0 0 0 127 0" result="hardAlpha"/>
            <feOffset dy="4"/>
            <feGaussianBlur stdDeviation="2"/>
            <feComposite in2="hardAlpha" operator="out"/>
            <feColorMatrix type="matrix" values="0 0 0 0 0 0 0 0 0 0 0 0 0 0 0 0 0 0 0.25 0"/>
            <feBlend mode="normal" in2="BackgroundImageFix" result="effect1_dropShadow_1_16"/>
            <feBlend mode="normal" in="SourceGraphic" in2="effect1_dropShadow_1_16" result="shape"/>
        </filter>
        <linearGradient id="paint0_linear_1_16" x1="202.647" y1="147.368" x2="564" y2="147.368" gradientUnits="userSpaceOnUse">
            <stop stop-color="#00DDF4"/>
            <stop offset="0.508912" stop-color="#0083C3"/>
            <stop offset="1" stop-color="#00D2C3"/>
        </linearGradient>
        <linearGradient id="paint1_linear_1_16" x1="6" y1="160" x2="319.5" y2="160" gradientUnits="userSpaceOnUse">
            <stop stop-color="#FE006A"/>
            <stop offset="0.481384" stop-color="#FE2830"/>
            <stop offset="1" stop-color="#FC2A34"/>
        </linearGradient>
    </defs>
</svg>
